<svg width="93" height="18" viewBox="0 0 93 18" fill="none" xmlns="http://www.w3.org/2000/svg">
<path d="M8.94 0.899999C10.86 0.513332 12.3533 0.753333 13.42 1.62C13.9267 2.03333 14.26 2.63333 14.42 3.42C14.5933 4.20667 14.5067 5.08667 14.16 6.06C14.0133 6.51333 13.76 6.85333 13.4 7.08C13.04 7.30667 12.6667 7.44 12.28 7.48C11.9067 7.50667 11.5667 7.46 11.26 7.34C10.9533 7.20667 10.7867 7.02 10.76 6.78L10.58 6.38C10.26 5.9 9.70667 5.84 8.92 6.2C8.24 6.50667 7.56 7.04 6.88 7.8C6.16 8.61333 5.69333 9.34667 5.48 10C5.24 10.72 5.12 11.1933 5.12 11.42C5.09333 11.9267 5.27333 12.38 5.66 12.78C6.22 13.14 6.78 13.3067 7.34 13.28C7.9 13.24 8.4 13.1133 8.84 12.9C9.28 12.6733 9.64 12.42 9.92 12.14C10.2 11.86 10.34 11.66 10.34 11.54C10.38 11.46 10.42 11.38 10.46 11.3C10.5 11.22 10.5333 11.14 10.56 11.06C10.5067 11.06 10.52 11.06 10.6 11.06C10.68 11.0467 10.7 11.0467 10.66 11.06C10.62 11.06 10.64 11.0667 10.72 11.08L10.84 11.12C10.1867 11.7067 9.55333 11.8267 8.94 11.48C8.7 11.3333 8.48667 11.18 8.3 11.02C8.11333 10.8467 7.94 10.7667 7.78 10.78C7.48667 10.62 7.42 10.3067 7.58 9.84C7.64667 9.65333 7.76667 9.48 7.94 9.32C8.12667 9.14667 8.36 9.02667 8.64 8.96C9.97333 8.38667 11.2067 8.25333 12.34 8.56C12.8467 8.69333 13.1933 8.96667 13.38 9.38C13.58 9.78 13.6667 10.2333 13.64 10.74C13.6133 11.2467 13.5 11.76 13.3 12.28C13.1133 12.8 12.9067 13.22 12.68 13.54C12.4533 13.8467 12.1333 14.2133 11.72 14.64C11.32 15.0667 10.8133 15.48 10.2 15.88C8.69333 16.8533 7.08 17.32 5.36 17.28C2.86667 17.24 1.39333 16.22 0.94 14.22C0.793333 13.58 0.726667 12.86 0.74 12.06C0.873333 9.74 1.56667 7.57333 2.82 5.56C3.42 4.6 4.22667 3.65333 5.24 2.72C5.88 2.14667 6.6 1.70667 7.4 1.4C7.82667 1.22667 8.34 1.06 8.94 0.899999ZM19.8334 2.76C20.6734 1.8 21.6068 1.2 22.6334 0.959999C23.3401 0.786666 24.0068 0.813333 24.6334 1.04C25.1268 0.519999 25.7668 0.333332 26.5534 0.48C27.2734 0.613333 27.8868 1.02 28.3934 1.7C28.4201 1.79333 28.4734 1.93333 28.5534 2.12C28.6468 2.30667 28.7334 2.51333 28.8134 2.74C29.4001 4.1 29.4468 5.88667 28.9534 8.1C28.3401 10.8467 27.2534 13.1733 25.6934 15.08C25.2134 15.6667 24.6734 16.1533 24.0734 16.54C23.1134 17.2733 21.9668 17.6 20.6334 17.52C19.8068 17.48 19.1134 17.2733 18.5534 16.9C16.3268 15.7933 15.6001 13.4867 16.3734 9.98C17.0134 7.1 18.1668 4.69333 19.8334 2.76ZM20.0734 13.38L20.0534 13.5L20.0934 13.72C20.1734 14.1333 20.3068 14.4533 20.4934 14.68C20.6801 14.8933 20.8334 15.0267 20.9534 15.08C21.0868 14.9733 21.2201 14.8733 21.3534 14.78C21.4868 14.6867 21.6068 14.5733 21.7134 14.44C22.6201 13.32 23.3268 11.8533 23.8334 10.04C24.3401 8.22667 24.5268 6.54667 24.3934 5C23.8734 5.66667 23.3268 6.43333 22.7534 7.3C22.1801 8.16667 21.7268 8.90667 21.3934 9.52C20.6334 10.9467 20.1934 12.2333 20.0734 13.38ZM41.6069 2.44C42.0602 2.68 42.3469 3.03333 42.4669 3.5C42.2002 4.99333 41.9602 6.48 41.7469 7.96C41.5335 9.42667 41.3269 10.66 41.1269 11.66C40.9269 12.6467 40.7869 13.3867 40.7069 13.88C40.6402 14.3733 40.5602 14.8667 40.4669 15.36L40.3469 15.78C40.3202 15.9267 40.2935 16.06 40.2669 16.18C40.2402 16.3133 40.2135 16.4533 40.1869 16.6C39.8135 17.0267 39.3069 17.24 38.6669 17.24C37.9869 17.24 37.4469 17.0667 37.0469 16.72C36.8069 16.5333 36.7669 16.14 36.9269 15.54C36.9935 15.3 37.0335 14.9933 37.0469 14.62C37.0735 14.2333 37.1002 13.9133 37.1269 13.66V13.62C36.7269 13.7667 36.3669 13.96 36.0469 14.2C35.7269 14.4267 35.5269 14.5733 35.4469 14.64C35.3669 14.6933 35.2602 14.74 35.1269 14.78C34.9935 14.8067 34.8735 14.8267 34.7669 14.84C34.5135 14.8533 34.3402 14.8933 34.2469 14.96C33.4735 16.3467 32.7802 17.12 32.1669 17.28C31.7802 17.4 31.3935 17.4267 31.0069 17.36C30.6202 17.3067 30.3135 17.08 30.0869 16.68C29.6602 16.28 29.7669 15.1867 30.4069 13.4C30.7535 12.4533 31.2469 11.32 31.8869 10C32.5402 8.66667 33.1669 7.50667 33.7669 6.52C35.0602 4.4 36.4802 2.61333 38.0269 1.16C38.2802 1.05333 38.5535 0.933332 38.8469 0.799999C39.1402 0.653333 39.4269 0.573333 39.7069 0.56C40.0002 0.546666 40.3002 0.579999 40.6069 0.66C40.9135 0.739999 41.1735 0.859999 41.3869 1.02C41.8802 1.39333 41.9535 1.86667 41.6069 2.44ZM37.3269 7.7C37.0469 8.5 36.7669 9.24 36.4869 9.92C36.2069 10.5867 35.9669 11.1733 35.7669 11.68L37.3469 11.62C37.4535 10.7667 37.5735 9.92 37.7069 9.08C37.8402 8.24 37.9669 7.4 38.0869 6.56L37.3269 7.7ZM36.7869 11.7C36.9735 11.7 37.1602 11.6867 37.3469 11.66V11.64C37.1735 11.6533 37.0135 11.6667 36.8669 11.68C36.7202 11.6933 36.6935 11.7 36.7869 11.7ZM50.7959 10.88C50.4359 11.92 50.0693 12.92 49.6959 13.88C49.3226 14.84 49.0093 15.5667 48.7559 16.06C48.5159 16.5667 48.3026 16.9133 48.1159 17.1C47.9293 17.2867 47.7359 17.4133 47.5359 17.48C47.3493 17.5467 47.1559 17.5733 46.9559 17.56C46.7693 17.5467 46.5759 17.5333 46.3759 17.52C45.2559 17.3467 44.9093 16.54 45.3359 15.1C45.6159 13.9533 45.8426 13.02 46.0159 12.3C46.1893 11.5667 46.3293 10.9667 46.4359 10.5C46.5559 10.02 46.6559 9.62667 46.7359 9.32C46.8159 9 46.9026 8.68667 46.9959 8.38C47.0893 8.07333 47.2026 7.72667 47.3359 7.34C47.4826 6.95333 47.6693 6.44 47.8959 5.8C47.3893 5.86667 46.9359 5.81333 46.5359 5.64C45.9493 5.38667 45.7093 4.84 45.8159 4C45.8693 3.61333 46.0759 3.25333 46.4359 2.92C46.6226 2.74667 46.8426 2.56 47.0959 2.36C47.6159 1.94667 48.6493 1.50667 50.1959 1.04C51.7959 0.559999 53.1693 0.333332 54.3159 0.359999C54.6226 0.306666 54.9359 0.346666 55.2559 0.48C55.5893 0.6 55.8559 0.766666 56.0559 0.979999C56.2559 1.19333 56.3559 1.42667 56.3559 1.68C56.3693 1.93333 56.2093 2.16 55.8759 2.36C55.7159 2.46667 55.6026 2.64667 55.5359 2.9C55.4693 3.14 55.3959 3.4 55.3159 3.68C55.2359 3.94667 55.1159 4.19333 54.9559 4.42C54.8093 4.64667 54.5693 4.78 54.2359 4.82C54.0626 4.91333 53.8159 4.98 53.4959 5.02C53.1893 5.06 52.9826 5.09333 52.8759 5.12C52.7826 5.13333 52.7293 5.16667 52.7159 5.22C52.4759 5.92667 52.1893 6.78667 51.8559 7.8C51.5226 8.8 51.1693 9.82667 50.7959 10.88ZM48.0959 5.58C48.0693 5.58 48.0559 5.58667 48.0559 5.6C48.0559 5.6 48.0693 5.6 48.0959 5.6V5.58ZM66.935 2.44C67.3883 2.68 67.675 3.03333 67.795 3.5C67.5283 4.99333 67.2883 6.48 67.075 7.96C66.8617 9.42667 66.655 10.66 66.455 11.66C66.255 12.6467 66.115 13.3867 66.035 13.88C65.9683 14.3733 65.8883 14.8667 65.795 15.36L65.675 15.78C65.6483 15.9267 65.6217 16.06 65.595 16.18C65.5683 16.3133 65.5417 16.4533 65.515 16.6C65.1417 17.0267 64.635 17.24 63.995 17.24C63.315 17.24 62.775 17.0667 62.375 16.72C62.135 16.5333 62.095 16.14 62.255 15.54C62.3217 15.3 62.3617 14.9933 62.375 14.62C62.4017 14.2333 62.4283 13.9133 62.455 13.66V13.62C62.055 13.7667 61.695 13.96 61.375 14.2C61.055 14.4267 60.855 14.5733 60.775 14.64C60.695 14.6933 60.5883 14.74 60.455 14.78C60.3217 14.8067 60.2017 14.8267 60.095 14.84C59.8417 14.8533 59.6683 14.8933 59.575 14.96C58.8017 16.3467 58.1083 17.12 57.495 17.28C57.1083 17.4 56.7217 17.4267 56.335 17.36C55.9483 17.3067 55.6417 17.08 55.415 16.68C54.9883 16.28 55.095 15.1867 55.735 13.4C56.0817 12.4533 56.575 11.32 57.215 10C57.8683 8.66667 58.495 7.50667 59.095 6.52C60.3883 4.4 61.8083 2.61333 63.355 1.16C63.6083 1.05333 63.8817 0.933332 64.175 0.799999C64.4683 0.653333 64.755 0.573333 65.035 0.56C65.3283 0.546666 65.6283 0.579999 65.935 0.66C66.2417 0.739999 66.5017 0.859999 66.715 1.02C67.2083 1.39333 67.2817 1.86667 66.935 2.44ZM62.655 7.7C62.375 8.5 62.095 9.24 61.815 9.92C61.535 10.5867 61.295 11.1733 61.095 11.68L62.675 11.62C62.7817 10.7667 62.9017 9.92 63.035 9.08C63.1683 8.24 63.295 7.4 63.415 6.56L62.655 7.7ZM62.115 11.7C62.3017 11.7 62.4883 11.6867 62.675 11.66V11.64C62.5017 11.6533 62.3417 11.6667 62.195 11.68C62.0483 11.6933 62.0217 11.7 62.115 11.7ZM70.5241 8.24C70.7907 7.34667 71.0041 6.66 71.1641 6.18C71.3374 5.68667 71.5041 5.24667 71.6641 4.86C71.8241 4.47333 72.0041 4.1 72.2041 3.74C72.4174 3.38 72.6441 3.05333 72.8841 2.76C73.1374 2.45333 73.4041 2.21333 73.6841 2.04C73.9641 1.86667 74.2574 1.78 74.5641 1.78C74.8707 1.78 75.1907 1.9 75.5241 2.14C76.0574 3.47333 76.3841 4.36667 76.5041 4.82C76.6641 5.48667 76.8107 6.42667 76.9441 7.64C77.0641 7.33333 77.1974 7.01333 77.3441 6.68C77.5041 6.33333 77.6574 5.98667 77.8041 5.64C78.2174 4.76 78.4774 4.09333 78.5841 3.64C78.8774 2.70667 79.4841 2.00667 80.4041 1.54C81.2041 1.14 81.9507 1.01333 82.6441 1.16C82.9241 1.21333 83.1174 1.32667 83.2241 1.5C83.3441 1.67333 83.3441 1.85333 83.2241 2.04C83.1174 2.22667 83.0774 2.40667 83.1041 2.58C83.1441 2.74 83.1774 2.93333 83.2041 3.16C83.2441 3.77333 83.1374 4.32 82.8841 4.8C82.6307 5.26667 82.3707 5.85333 82.1041 6.56C81.8374 7.25333 81.5641 7.99333 81.2841 8.78C81.0174 9.56667 80.7441 10.3667 80.4641 11.18C80.1841 11.9933 79.9107 12.7333 79.6441 13.4C79.0574 14.9333 78.5774 15.78 78.2041 15.94C77.6974 16.2467 77.3241 16.4267 77.0841 16.48C76.7774 16.5333 76.3441 16.5333 75.7841 16.48C75.4374 16.4533 75.1374 16.0067 74.8841 15.14C74.7374 14.6733 74.6041 14.0267 74.4841 13.2C74.2707 11.76 74.1241 10.9667 74.0441 10.82C73.5107 12.5533 73.1307 13.6467 72.9041 14.1C72.6907 14.5533 72.5241 14.8533 72.4041 15C72.2974 15.1467 72.1641 15.34 72.0041 15.58C71.8307 16.06 71.4174 16.4133 70.7641 16.64C70.2041 16.8533 69.6974 16.8867 69.2441 16.74C68.7507 16.58 68.6041 16.2733 68.8041 15.82C68.9507 14.22 69.5241 11.6933 70.5241 8.24ZM92.2217 2.48C91.7551 3.93333 91.3217 5.24667 90.9217 6.42C90.5351 7.59333 90.1751 8.67333 89.8417 9.66C89.5217 10.6467 89.2217 11.56 88.9417 12.4C88.6617 13.2267 88.4017 14.02 88.1617 14.78C88.0284 15.66 87.5951 16.28 86.8617 16.64C86.4351 16.84 85.9284 16.94 85.3417 16.94C84.7551 16.94 84.3151 16.8733 84.0217 16.74C83.7284 16.62 83.5417 16.44 83.4617 16.2C83.3684 15.96 83.3684 15.6733 83.4617 15.34C83.5417 14.9933 83.6884 14.5267 83.9017 13.94C84.1151 13.34 84.3817 12.5333 84.7017 11.52C85.0351 10.5067 85.3817 9.48 85.7417 8.44C86.6351 5.84 87.3417 4.04 87.8617 3.04C88.0617 2.66667 88.2617 2.42 88.4617 2.3C88.6617 2.16667 88.8551 2.07333 89.0417 2.02C89.2284 1.95333 89.4017 1.88 89.5617 1.8C89.7217 1.72 89.8617 1.52 89.9817 1.2C90.1151 0.879999 90.3484 0.659999 90.6817 0.539999C91.0284 0.419999 91.3484 0.413332 91.6417 0.519999C91.9484 0.613333 92.1751 0.826666 92.3217 1.16C92.4817 1.48 92.4484 1.92 92.2217 2.48Z" fill="white"/>
</svg>
